<svg xmlns="http://www.w3.org/2000/svg">
    <defs>
        <symbol id="icon-play" viewBox="0 0 24 24" fill-rule="evenodd" clip-rule="evenodd">
          <path d="M12 2c5.514 0 10 4.486 10 10s-4.486 10-10 10-10-4.486-10-10 4.486-10 10-10zm0-2c-6.627 0-12 5.373-12 12s5.373 12 12 12 12-5.373 12-12-5.373-12-12-12zm-3 17v-10l9 5.146-9 4.854z"/>
        </symbol>
        <symbol id="icon-favorite" viewBox="0 0 24 24" fill-rule="evenodd" clip-rule="evenodd">
          <path d="M17.516 3c2.382 0 4.487 1.564 4.487 4.712 0 4.963-6.528 8.297-10.003 11.935-3.475-3.638-10.002-6.971-10.002-11.934 0-3.055 2.008-4.713 4.487-4.713 3.18 0 4.846 3.644 5.515 5.312.667-1.666 2.333-5.312 5.516-5.312zm0-2c-2.174 0-4.346 1.062-5.516 3.419-1.17-2.357-3.342-3.419-5.515-3.419-3.403 0-6.484 2.39-6.484 6.689 0 7.27 9.903 10.938 11.999 15.311 2.096-4.373 12-8.041 12-15.311 0-4.586-3.414-6.689-6.484-6.689z"/>
        </symbol>
        <symbol id="icon-cross" viewBox="0 0 24 24" fill-rule="evenodd" clip-rule="evenodd">
          <path d="M23 20.168l-8.185-8.187 8.185-8.174-2.832-2.807-8.182 8.179-8.176-8.179-2.81 2.81 8.186 8.196-8.186 8.184 2.81 2.81 8.203-8.192 8.18 8.192z"/>
        </symbol>
    </defs>
</svg>
